<svg xmlns="http://www.w3.org/2000/svg" width="76.542" height="100.961" viewBox="0 0 76.542 100.961" style="">
  <g id="Group_1" data-name="Group 1" transform="translate(-1506.74 121.521)">
    <path id="Path_2" data-name="Path 2" d="M1431.24,262.456v-5.477h40.624v5.477h-7.988l-3.423,2.282-1.6,2.967v81.932h32.408l4.564-4.336,2.511-4.336,1.319-3.624V326.815h7.125V356.94H1431.24v-5.706h8.444l3.2-2.967,1.826-2.967v-77.6l-1.826-2.967-4.336-2.282Z" transform="translate(76 -378)" fill="none" stroke="#08fdd8" stroke-width="1" class="lSDYXpwy_0"></path>
    <path id="Path_3" data-name="Path 3" d="M1433.04,260.869v-2.214l37.188.125v1.849l-6.591.241-4.328,2.787L1457.2,267v84.233l34.835.012,4.943-4.957,2.755-4.67,1.334-4v-9.35h4.293l-.287,26.962-72.121.213v-2.69h7.124l3.992-3.481,2.257-3.853.182-78.125-2.182-3.637-5.076-2.787Z" transform="translate(76 -378)" fill="none" stroke="#fc0b56" stroke-width="1" class="lSDYXpwy_1"></path>
  </g>
<style data-made-with="vivus-instant">.lSDYXpwy_0{stroke-dasharray:436 438;stroke-dashoffset:437;animation:lSDYXpwy_draw 2000ms linear 0ms forwards;}.lSDYXpwy_1{stroke-dasharray:420 422;stroke-dashoffset:421;animation:lSDYXpwy_draw 2000ms linear 1000ms forwards;}@keyframes lSDYXpwy_draw{100%{stroke-dashoffset:0;}}@keyframes lSDYXpwy_fade{0%{stroke-opacity:1;}94.44444444444444%{stroke-opacity:1;}100%{stroke-opacity:0;}}</style></svg>
